HIERARCHY
ROOT hip
{
	OFFSET 0.000000 0.000000 0.000000 
	CHANNELS 6 Xposition Yposition Zposition Xrotation Zrotation Yrotation
	JOINT abdomen
	{
		OFFSET 0.000000 3.402643 0.000000 
		CHANNELS 3 Xrotation Zrotation Yrotation
		JOINT chest
		{
			OFFSET 0.000000 8.438565 -0.680529 
			CHANNELS 3 Xrotation Zrotation Yrotation
			JOINT neck
			{
				OFFSET 0.000000 10.207942 -0.272212 
				CHANNELS 3 Xrotation Zrotation Yrotation
				JOINT head
				{
					OFFSET 0.000000 3.130431 0.000000 
					CHANNELS 3 Xrotation Zrotation Yrotation
					End Site
					{
						OFFSET 0.000000 3.130435 0.000000 
					}
				}
			}
			JOINT lCollar
			{
				OFFSET 3.470700 6.669187 -0.816635 
				CHANNELS 3 Yrotation Zrotation Xrotation
				JOINT lShldr
				{
					OFFSET 3.198488 0.000000 0.000000 
					CHANNELS 3 Zrotation Yrotation Xrotation
					JOINT lForeArm
					{
						OFFSET 10.139888 0.000000 0.000000 
						CHANNELS 3 Yrotation Zrotation Xrotation
						JOINT lHand
						{
							OFFSET 8.370511 0.000000 0.000000 
							CHANNELS 3 Zrotation Yrotation Xrotation
							End Site
							{
								OFFSET 4.083176 0.000000 0.000000 
							}
						}
					}
				}
			}
			JOINT rCollar
			{
				OFFSET -3.470700 6.669187 -0.816635 
				CHANNELS 3 Yrotation Zrotation Xrotation
				JOINT rShldr
				{
					OFFSET -3.198488 0.000000 0.000000 
					CHANNELS 3 Zrotation Yrotation Xrotation
					JOINT rForeArm
					{
						OFFSET -10.139888 0.000000 0.000000 
						CHANNELS 3 Yrotation Zrotation Xrotation
						JOINT rHand
						{
							OFFSET -8.370511 0.000000 0.000000 
							CHANNELS 3 Zrotation Yrotation Xrotation
							End Site
							{
								OFFSET -4.083176 0.000000 0.000000 
							}
						}
					}
				}
			}
		}
	}
	JOINT lThigh
	{
		OFFSET 5.308129 -1.633274 1.361059 
		CHANNELS 3 Xrotation Zrotation Yrotation
		JOINT lShin
		{
			OFFSET -2.041588 -20.007561 0.000000 
			CHANNELS 3 Xrotation Zrotation Yrotation
			JOINT lFoot
			{
				OFFSET 0.000000 -19.190928 -1.224953 
				CHANNELS 3 Xrotation Yrotation Zrotation
				End Site
				{
					OFFSET 0.000000 -2.449906 4.627600 
				}
			}
		}
	}
	JOINT rThigh
	{
		OFFSET -5.308129 -1.633274 1.361059 
		CHANNELS 3 Xrotation Zrotation Yrotation
		JOINT rShin
		{
			OFFSET 2.041588 -20.007561 0.000000 
			CHANNELS 3 Xrotation Zrotation Yrotation
			JOINT rFoot
			{
				OFFSET 0.000000 -19.190928 -1.224953 
				CHANNELS 3 Xrotation Yrotation Zrotation
				End Site
				{
					OFFSET 0.000000 -2.449906 4.627600 
				}
			}
		}
	}
}
MOTION
Frames: 16
Frame Time: 0.016667
-5.606217 37.795769 24.965082 -9.127020 4.261960 12.402300 -18.410101 4.583270 9.022760 18.837400 -1.317770 5.029770 7.911728 -16.999926 -8.555971 13.600500 8.109270 -2.110060 2.000000 -2.000000 0.000000 -89.938698 -30.532000 -131.220001 129.365997 -0.121938 0.123046 0.046307 -0.023110 -145.203003 -2.000000 2.000000 0.000000 99.113098 44.824299 -87.617203 -80.781799 0.236751 0.134958 -0.058853 -0.027785 -123.387001 -26.873318 3.696891 -16.354357 49.702019 2.524665 3.185951 -5.327225 -12.305747 0.327483 3.665709 -2.895892 -9.837956 62.868454 -1.775451 -3.765624 -20.982523 -16.634216 -6.986817 
-5.824311 37.298428 24.434280 -9.301010 4.838200 14.814400 -18.512800 4.508350 8.932690 17.811800 -1.316850 4.975220 7.454676 -15.705854 -9.189455 13.062100 7.881470 -2.614480 2.000000 -2.000000 0.000000 -89.684898 -28.726900 -132.199005 129.677994 -0.121321 0.122537 0.046142 -0.021946 -144.783005 -2.000000 2.000000 0.000000 98.958801 39.668400 -94.352798 -82.598198 0.232462 0.135585 -0.067687 -0.054177 -113.435997 -28.032846 2.967147 -16.056803 49.822994 2.475644 3.210072 -5.907402 -12.899706 0.097074 3.130868 -3.445143 -11.389421 64.981247 -1.566656 -3.860752 -22.262438 -15.854606 -7.163250 
-6.042415 36.801331 23.903372 -9.446980 5.423930 17.224300 -18.625401 4.442670 8.838720 16.776300 -1.325240 4.921520 6.979899 -14.404833 -9.819591 12.534200 7.652070 -3.103490 2.000000 -2.000000 0.000000 -89.460403 -26.921801 -133.149002 129.990997 -0.120708 0.122026 0.045985 -0.020780 -144.363007 -2.000000 2.000000 0.000000 99.552101 34.523800 -100.622002 -84.424301 0.228133 0.136077 -0.080935 -0.078622 -103.494003 -29.277380 2.203504 -15.731277 50.088367 2.454073 3.214707 -6.540962 -13.494465 -0.148857 2.586703 -3.995513 -12.945474 67.220589 -1.369541 -3.965046 -23.615368 -15.067449 -7.310059 
-6.339953 36.649895 23.247990 -10.138500 4.460780 18.510000 -18.241600 5.044540 8.638000 16.815500 -1.237590 4.905120 6.386371 -13.435841 -10.018695 12.085900 7.419800 -3.382830 2.000000 -2.000000 0.000000 -87.400902 -24.317301 -134.910995 129.600006 -0.121475 0.122665 0.045676 -0.018256 -143.455002 -2.000000 2.000000 0.000000 97.142799 31.753099 -105.559998 -85.283699 0.226090 0.136262 -0.064279 -0.045675 -116.707001 -30.011148 2.783010 -17.599636 49.660812 2.550359 3.169136 -6.148401 -14.093681 -0.028389 2.060780 -2.418873 -13.068437 67.839928 -1.280073 -3.980469 -24.040375 -14.417966 -7.187305 
-6.637460 36.498577 22.592722 -10.840900 3.510590 19.806801 -17.869400 5.645550 8.435200 16.854700 -1.159690 4.879700 5.786985 -12.490120 -10.231833 11.648200 7.196050 -3.646220 2.000000 -2.000000 0.000000 -85.468201 -21.653999 -136.535995 129.209000 -0.122247 0.123299 0.045406 -0.015727 -142.546997 -2.000000 2.000000 0.000000 95.083298 28.816999 -110.216003 -86.152901 0.224022 0.136416 -0.055594 -0.019558 -129.919998 -30.753254 3.328217 -19.479450 49.299660 2.672034 3.112976 -5.855188 -14.675206 0.048448 1.645725 -0.806243 -13.185844 68.353867 -1.176394 -4.037179 -24.447971 -13.749695 -7.068690 
-6.929044 36.641357 21.790964 -10.172900 4.104590 20.143499 -17.581301 5.644890 8.180890 16.992001 -0.536070 4.730660 5.628865 -12.639688 -10.305430 11.686800 7.156600 -3.714860 2.000000 -2.000000 0.000000 -86.133797 -20.806700 -137.813004 129.462997 -0.121745 0.122887 0.045246 -0.014012 -141.932007 -2.000000 2.000000 0.000000 92.148804 27.026199 -116.556000 -84.932198 0.226926 0.136190 -0.055777 -0.011231 -129.401993 -30.611780 2.277693 -20.070194 46.505241 2.843385 2.971546 -3.282743 -13.482486 0.669933 0.584783 -1.844462 -13.687297 68.100174 -1.177923 -4.048696 -25.352621 -13.094171 -7.020349 
-7.220606 36.784142 20.989319 -9.504790 4.690860 20.485300 -17.293100 5.653700 7.925540 17.119101 0.077984 4.585160 5.450249 -12.796377 -10.363874 11.725300 7.107470 -3.775070 2.000000 -2.000000 0.000000 -86.809196 -19.978901 -139.093994 129.716995 -0.121245 0.122474 0.045105 -0.012295 -141.315994 -2.000000 2.000000 0.000000 89.505402 24.963100 -122.686996 -83.711502 0.229825 0.135902 -0.055973 -0.012667 -128.884995 -30.463337 1.215694 -20.662184 43.766682 3.016875 2.819024 -0.784902 -12.239585 1.227895 -0.383235 -2.861253 -14.154695 67.816978 -1.159505 -4.038616 -26.327713 -12.440168 -6.969813 
-7.697022 37.326286 20.146332 -9.219850 3.817380 20.445400 -17.242800 5.896170 7.484500 16.962799 0.302139 4.385320 5.173264 -12.919241 -10.280231 11.771700 6.961410 -3.769100 2.000000 -2.000000 0.000000 -86.019402 -17.599199 -140.826996 130.820999 -0.119092 0.120650 0.045335 -0.014992 -142.283005 -2.000000 2.000000 0.000000 87.663101 23.673599 -129.365005 -80.244698 0.238015 0.134747 -0.058036 -0.024213 -124.695000 -30.022690 2.238285 -21.327379 39.374157 3.311455 2.541842 4.637190 -10.846330 2.145361 -1.183684 -1.988906 -15.143257 65.690338 -1.262533 -3.976010 -26.289438 -12.122475 -6.819335 
-8.173414 37.868294 19.303232 -8.947440 2.942340 20.406200 -17.182400 6.148250 7.041850 16.816299 0.516476 4.194750 4.886673 -13.031191 -10.203296 11.818200 6.815370 -3.753620 2.000000 -2.000000 0.000000 -85.317497 -15.190300 -142.520996 131.934006 -0.116956 0.118768 0.045614 -0.017712 -143.259995 -2.000000 2.000000 0.000000 86.014397 22.199900 -135.936005 -76.768097 0.246143 0.133094 -0.060929 -0.035551 -120.515999 -29.062502 3.345408 -22.021919 34.523460 3.555490 2.246363 9.958790 -9.227983 3.010559 -1.974768 -1.133296 -16.123007 63.457436 -1.340062 -3.923595 -26.158707 -11.806858 -6.665537 
-8.618746 38.560432 18.462944 -8.123600 2.590960 19.728300 -17.011200 6.038170 6.718970 16.982100 0.740744 4.016230 5.346985 -12.545157 -10.118187 11.672800 6.934180 -3.628560 2.000000 -2.000000 0.000000 -85.211098 -13.444600 -143.764008 133.203003 -0.114566 0.116572 0.045871 -0.019885 -144.041000 -2.000000 2.000000 0.000000 84.842400 21.527100 -141.968994 -75.664597 0.248700 0.132466 -0.058891 -0.037710 -123.328003 -28.761370 3.712953 -21.402370 30.747982 3.818653 1.973783 15.516191 -5.455415 2.483734 -2.913457 -1.326623 -16.689739 60.751602 -1.500923 -3.850673 -25.237921 -9.702216 -5.469088 
-9.064054 39.252560 17.622654 -7.310340 2.247230 19.057699 -16.829300 5.918820 6.398510 17.148001 0.955338 3.829830 5.824547 -12.071026 -10.032422 11.527200 7.043330 -3.495610 2.000000 -2.000000 0.000000 -85.133904 -11.689200 -145.007004 134.483002 -0.112207 0.114306 0.046157 -0.022054 -144.822006 -2.000000 2.000000 0.000000 83.766602 20.747801 -147.962997 -74.561096 0.251245 0.131790 -0.057229 -0.020247 -126.140999 -28.498114 3.957350 -20.773043 27.277069 4.177693 1.712860 20.867617 -1.714517 1.552043 -3.891562 -1.543427 -17.245827 58.211224 -1.634909 -3.746026 -24.459934 -7.631577 -4.323182 
-9.379309 39.852356 16.666092 -6.310670 1.465680 17.123100 -16.936600 5.945930 6.414360 16.933300 0.721212 3.850820 6.274738 -12.179000 -10.000648 11.638700 7.215590 -3.381210 2.000000 -2.000000 0.000000 -85.271896 -10.929700 -146.141998 135.479004 -0.110405 0.112506 0.046501 -0.024408 -145.671997 -2.000000 2.000000 0.000000 82.658096 19.361099 -152.660004 -77.412598 0.244644 0.133438 -0.056849 -0.018176 -126.891998 -28.761650 4.554124 -19.459375 27.482624 3.998866 1.749782 19.800816 -1.168449 1.372434 -5.795679 -1.714894 -16.557714 56.409248 -1.684230 -3.701952 -22.710623 -3.900871 -2.461126 
-9.694564 40.452152 15.709645 -5.293400 0.729299 15.166800 -17.043200 5.967070 6.442140 16.708900 0.477437 3.874140 6.733245 -12.296770 -9.984026 11.760000 7.377860 -3.274730 2.000000 -2.000000 0.000000 -85.419601 -10.170200 -147.276001 136.464996 -0.108653 0.110693 0.046885 -0.026784 -146.531006 -2.000000 2.000000 0.000000 81.685303 17.906300 -157.292007 -80.264198 0.237969 0.134755 -0.056500 -0.016127 -127.635002 -28.965187 5.158274 -18.161459 27.765711 3.827976 1.816813 18.656538 -0.610262 1.203834 -7.750393 -1.893935 -15.887800 54.781143 -1.755760 -3.631669 -21.196266 -0.152888 -0.734008 
-9.905468 40.881420 14.693097 -4.238330 -0.262951 12.187500 -17.275200 6.136270 6.560150 16.259800 0.048689 3.961370 6.201070 -12.698050 -9.190915 11.895700 7.268770 -2.949510 2.000000 -2.000000 0.000000 -85.461098 -10.427800 -149.089996 137.119003 -0.107507 0.109473 0.047436 -0.029852 -147.643997 -2.000000 2.000000 0.000000 80.291100 18.340500 -159.360992 -84.121597 0.228851 0.136005 -0.054910 -0.003046 -132.341995 -30.358330 5.711566 -15.930764 33.599838 3.547909 2.212500 15.316206 -0.540075 1.116461 -10.503860 -1.926366 -13.907135 54.165905 -1.727557 -3.616538 -19.248161 4.755820 1.016356 
-10.116360 41.310699 13.676548 -3.125690 -1.199390 9.176810 -17.516399 6.299020 6.687740 15.800700 -0.389280 4.046060 5.649672 -13.078228 -8.393903 12.031200 7.150030 -2.637140 2.000000 -2.000000 0.000000 -85.502502 -10.685500 -150.906006 137.764008 -0.106393 0.108259 0.048046 -0.032909 -148.757996 -2.000000 2.000000 0.000000 78.877098 18.735800 -161.447006 -87.969299 0.219694 0.136639 -0.054399 0.000356 -137.048996 -31.432257 6.465271 -13.682885 38.382820 3.101669 2.561538 12.679346 -0.552037 1.120784 -13.349231 -1.902105 -11.919898 53.728107 -1.691978 -3.631385 -17.552303 9.731513 2.620911 
-10.348642 41.662552 12.792896 -2.558730 -0.595109 6.530500 -17.518101 6.041860 6.359470 15.371100 -0.068080 3.834300 4.893930 -13.243270 -7.241089 11.988700 6.986380 -2.205840 2.000000 -2.000000 0.000000 -85.115196 -11.296700 -153.619995 138.173996 -0.105691 0.107480 0.048338 -0.034273 -149.255997 -2.000000 2.000000 0.000000 78.117500 20.047199 -162.654999 -92.685997 0.208900 0.117055 -0.054850 0.012022 -141.218994 -30.652639 6.080126 -10.453236 42.784264 2.668638 2.878361 9.829074 -0.864200 1.120080 -15.315915 -2.992927 -9.619656 53.933491 -1.693286 -3.635303 -16.640947 7.961013 1.925733 
